<svg version="1.2" xmlns="http://www.w3.org/2000/svg" viewBox="0 0 48 48" width="48" height="48"><defs><linearGradient id="P" gradientUnits="userSpaceOnUse"/><radialGradient id="g1" cx="0" cy="0" r="1" href="#P" gradientTransform="matrix(3.601,.755,-0.755,3.601,24.391,18.583)"><stop stop-color="#e6e6e6"/><stop offset="1" stop-color="#d5d5d5"/></radialGradient><linearGradient id="g2" x2="1" href="#P" gradientTransform="matrix(12.95,11.963,-11.968,12.956,16.783,22.938)"><stop stop-color="#003e8c"/><stop offset="1" stop-color="#0062db"/></linearGradient><radialGradient id="g3" cx="0" cy="0" r="1" href="#P" gradientTransform="matrix(16.384,6.457,-6.457,16.384,19.164,24.39)"><stop stop-color="#7ed249"/><stop offset="1" stop-color="#286325"/></radialGradient><linearGradient id="g4" x2="1" href="#P" gradientTransform="matrix(-0.62,-5.215,7.925,-0.943,14.078,29.619)"><stop stop-color="#520"/><stop offset="1" stop-color="#b6632c"/></linearGradient><linearGradient id="g5" x2="1" href="#P" gradientTransform="matrix(.87,-8.313,22.63,2.368,16.082,42.448)"><stop stop-color="#520"/><stop offset="1" stop-color="#b6632c"/></linearGradient><linearGradient id="g6" x2="1" href="#P" gradientTransform="matrix(1.402,-4.054,3.829,1.324,13.327,35.375)"><stop stop-color="#e6e6e6"/><stop offset="1" stop-color="#d5d5d5"/></linearGradient><linearGradient id="g7" x2="1" href="#P" gradientTransform="matrix(2.93,-12.454,13.321,3.134,7.16,42.015)"><stop stop-color="#520"/><stop offset="1" stop-color="#b6632c"/></linearGradient><linearGradient id="g8" x2="1" href="#P" gradientTransform="matrix(-11.923,12.766,-21.234,-19.831,42.858,24.208)"><stop stop-color="#9a5723"/><stop offset="1" stop-color="#db9762"/></linearGradient><linearGradient id="g9" x2="1" href="#P" gradientTransform="matrix(-5.009,3.358,-9.911,-14.783,41.546,24.706)"><stop stop-color="#9a5723"/><stop offset="1" stop-color="#db9762"/></linearGradient><linearGradient id="g10" x2="1" href="#P" gradientTransform="matrix(20.323,-1.198,1.466,24.869,27.022,32.847)"><stop stop-color="#d1f6f6"/><stop offset="1" stop-color="#2adbdb"/></linearGradient><linearGradient id="g11" x2="1" href="#P" gradientTransform="matrix(18.161,-1.402,1.458,18.88,28.047,32.881)"><stop stop-color="#555"/><stop offset="1"/></linearGradient><linearGradient id="g12" x2="1" href="#P" gradientTransform="matrix(-13.014,7.494,-8.317,-14.444,53.157,28.487)"><stop stop-color="#9a5723"/><stop offset="1" stop-color="#db9762"/></linearGradient><linearGradient id="g13" x2="1" href="#P" gradientTransform="matrix(-10.307,2.722,-2.588,-9.799,50.432,36.608)"><stop stop-color="#520"/><stop offset="1" stop-color="#b6632c"/></linearGradient><linearGradient id="g14" x2="1" href="#P" gradientTransform="matrix(10.612,7.063,-6.902,10.369,19.816,12.097)"><stop stop-color="#9a5723"/><stop offset="1" stop-color="#db9762"/></linearGradient><linearGradient id="g15" x2="1" href="#P" gradientTransform="matrix(8.707,6.16,-14.972,21.163,13.05,11.784)"><stop stop-color="#9a5723"/><stop offset="1" stop-color="#db9762"/></linearGradient><linearGradient id="g16" x2="1" href="#P" gradientTransform="matrix(-9.864,-7.893,6.575,-8.217,27.871,19.178)"><stop stop-color="#d700d7"/><stop offset="1" stop-color="#6e006e"/></linearGradient><linearGradient id="g17" x2="1" href="#P" gradientTransform="matrix(3.775,1.597,-2.715,6.418,21.487,12.379)"><stop stop-color="#9a5723"/><stop offset="1" stop-color="#db9762"/></linearGradient><linearGradient id="g18" x2="1" href="#P" gradientTransform="matrix(4.749,1.941,-1.362,3.332,26.19,7.99)"><stop stop-color="#ff9b24"/><stop offset="1" stop-color="#ffbf00"/></linearGradient><linearGradient id="g19" x2="1" href="#P" gradientTransform="matrix(-5.096,.594,-0.417,-3.576,24.326,8.059)"><stop stop-color="#ff9b24"/><stop offset="1" stop-color="#ffbf00"/></linearGradient><linearGradient id="g20" x2="1" href="#P" gradientTransform="matrix(13.481,12.442,-12.96,14.042,10.533,-2.569)"><stop stop-color="#9a5723"/><stop offset="1" stop-color="#db9762"/></linearGradient><linearGradient id="g21" x2="1" href="#P" gradientTransform="matrix(4.752,3.083,-2.485,3.83,23.447,5.409)"><stop stop-color="#ff9b24"/><stop offset="1" stop-color="#ffbf00"/></linearGradient></defs><style>.a{fill:url(#g1)}.b{fill:url(#g2)}.c{fill:url(#g3)}.d{fill:url(#g4)}.e{fill:url(#g5)}.f{fill:url(#g6)}.g{fill:url(#g7)}.h{opacity:.6;fill:#fff}.i{opacity:.3;fill:#fff}.j{opacity:.7;fill:#fff}.k{fill:url(#g8)}.l{fill:url(#g9)}.m{fill:url(#g10)}.n{fill:url(#g11)}.o{fill:url(#g12)}.p{fill:url(#g13)}.q{opacity:.4;fill:#fff}.r{fill:url(#g14)}.s{fill:url(#g15)}.t{fill:url(#g16)}.u{fill:url(#g17)}.v{fill:url(#g18)}.w{fill:url(#g19)}.x{fill:url(#g20)}.y{opacity:.5;fill:#fff}.z{fill:url(#g21)}</style><path class="a" d="m14.2 26.5l5.6-8.3 5.6-2.9 7.5 3.7 3.7 7.5-3.6 6.1-7.6 5.1-6.3-5.7z"/><path fill-rule="evenodd" class="b" d="m23.8 37.6c-1.8-0.2-3.4-0.9-4.9-2-0.8-0.5-2.1-1.8-2.6-2.6-0.8-1-1.5-2.4-1.8-3.7-0.1-0.6-0.3-2-0.3-2.8 0-0.7 0.2-2.2 0.3-2.8 0.3-1.2 1-2.6 1.8-3.7 0.5-0.8 1.8-2 2.6-2.6 1.2-0.9 2.9-1.6 4.4-1.9 2-0.3 4.2-0.1 6 0.5 3.3 1.3 6 4.2 6.9 7.7 0.2 0.6 0.4 2.1 0.4 2.8 0 0.8-0.2 2.2-0.4 2.8-0.3 1.3-1 2.7-1.7 3.7-0.6 0.8-1.8 2.1-2.6 2.6-1.1 0.8-2.5 1.4-3.7 1.8-1.2 0.3-3 0.4-4.4 0.2zm0.6-17.6c0.1-0.1 0.3-0.1 0.5-0.1 0.2 0 0.5 0 0.7 0 0.3-0.1 0.4-0.1 0.5 0 0.3 0.1 1.1-0.1 1.1-0.4 0 0 0-0.2 0.2-0.4 0.2-0.4 0.2-0.5 0-0.7-0.1-0.1-0.3-0.3-0.4-0.5-0.2-0.5-0.3-0.6-0.8-0.4-0.4 0.1-0.6 0.1-1-0.1-0.2-0.1-0.2-0.1-0.7 0-0.2 0-0.6 0.1-0.8 0.1-0.6 0-0.7 0.1-0.8 0.6 0 0.3-0.2 0.7-0.5 0.9-0.1 0.1-0.1 0.4 0.1 0.5 0.1 0.2 1.3 0.6 1.5 0.6 0.1 0 0.3 0 0.4-0.1z"/><path fill-rule="evenodd" class="c" d="m29.3 16c3.3 1.3 6 4.2 6.9 7.7 0.2 0.6 0.4 2.1 0.4 2.8 0 0.8-0.2 2.2-0.4 2.8-0.3 1.3-1 2.7-1.7 3.7-0.3 0.4-0.7 0.9-1.2 1.4 0-0.2 0-0.3-0.1-0.5 0-0.1 0.1-0.4 0.2-0.7l0.2-0.6-0.2-0.2c-0.2-0.2-0.3-0.2-0.3-0.4q0.1-0.2 0-0.2c-0.1-0.1-0.6 0.2-0.9 0.4-0.4 0.4-1.3 0.7-1.7 0.7-0.6 0-0.9-0.2-1.3-0.5-0.4-0.4-0.4-0.5-0.3-0.9 0.1-0.3 0.1-0.4 0-0.6-0.1-0.1-0.1-0.3-0.1-0.4 0-0.3 0.3-0.9 0.5-1.3 0.3-0.2 0.3-0.4 0.3-0.6 0-0.2 0.1-0.5 0.2-0.7 0.1-0.2 0.2-0.4 0.2-0.4q0 0-0.2 0c-0.3 0-0.5-0.2-0.7-0.5-0.1-0.5-0.1-0.7 0.2-0.9q0.7-0.6 0.3-0.8c-0.2-0.1-0.3-0.3-0.1-0.6 0-0.2 0.1-0.5 0.2-0.7 0-0.2 0.1-0.4 0.2-0.5l0.2-0.3h-0.3c-0.6-0.1-0.7-0.1-0.8-0.3q-0.2-0.2-0.3-0.6c0-0.3-0.1-0.7-0.2-0.8-0.2-0.5-0.2-0.7 0-1 0.3-0.3 0.4-0.4 0.8-0.1 0.2 0.1 0.4 0.1 0.5 0.1 0 0-0.3-0.7-0.5-1.1 0 0-0.1-0.2-0.2-0.3-0.1-0.3-0.3-0.5-0.9-0.7q-0.5-0.3-0.6-0.2l-0.2-0.3-0.9-0.8h-0.2q0 0 0-0.1c-0.1-0.2-0.2-0.2-0.6-0.1q-0.1 0-0.2 0h-0.1l-0.1 0.1c-0.1 0-0.2-0.1-0.4-0.1-0.4-0.2-0.4-0.2-0.9 0-0.2 0.1-0.5 0.1-0.7 0.1-0.1 0-0.2 0.1-0.3 0.1-0.3 0.2-0.8 0.2-0.9 0.1q-0.1-0.1 0-0.2c0.1 0 0.1-0.1 0.1-0.3q0.1-0.3 0.6-0.3 0.5 0 0.5-0.4 0 0 0-0.1 0-0.1 0-0.2 0.1-0.1 0-0.2c0.7-0.1 1.5-0.2 2.3-0.2 1.3 0.1 2.6 0.3 3.7 0.7zm-4.4-0.3c0 0 0.2 0.1 0.3 0.1 0.2 0 0.3-0.1 0.4-0.1q0-0.1-0.4-0.1-0.1 0-0.2 0-0.1 0.1-0.1 0.1zm-0.6 0.1q0 0 0 0 0.1 0 0.1-0.1 0-0.1-0.1 0 0 0 0 0.1zm-3 1.5c0.8 0 1.1 0.1 1.1 0.4 0.1 0.2 0 0.3-0.4 0.6l-0.5 0.4v0.8c0.1 0.6 0.1 0.8 0.2 1 0.2 0.2 0.2 0.2 0.6 0.2 0.3 0 0.4 0 0.5 0.2q0 0.2-0.1 0.4c-0.1 0.1-0.2 0.2-0.8 0.2-0.5 0-0.6-0.1-0.9 0.2-0.2 0.3-0.2 0.3-0.2 0.7 0 0.2-0.1 0.6-0.2 0.8-0.1 0.4-0.1 0.4 0 0.6 0.1 0.2 0.4 0.3 0.4 0.1 0.1-0.1 0.2-0.3 0.3-0.4 0.2-0.2 0.3-0.4 0.3-0.6 0.1-0.7 0.4-0.7 0.7-0.1 0.1 0.2 0.3 0.5 0.4 0.7 0.1 0.1 0.3 0.4 0.4 0.7 0.3 0.5 0.3 0.6 0 1.1l-0.3 0.3h-0.5c-0.5 0-0.7 0.1-0.7 0.5 0 0.1 0 0.2-0.3 0.2-0.1 0-0.4 0.1-0.5 0.2-0.1 0-0.3 0.1-0.4 0.1q-0.5 0-0.5 0.3c0 0.2-0.2 0.4-0.5 0.3-0.2 0-0.3 0-0.4 0.2-0.1 0.1-0.1 0.3-0.2 0.5-0.1 0.4-0.2 0.5-0.5 0.5-0.1 0-0.1 0 0-0.3 0-0.3 0-0.4-0.3-0.8-0.6-1-1.3-0.9-1.3 0.2 0 0.4 0 0.5 0.1 0.6 0.1 0 0.2 0 0.3 0 0.1-0.1 0.4 0 0.5 0.2 0 0-0.1 0.2-0.2 0.4l-0.1 0.3 0.2 0.3c0.2 0.2 0.2 0.3 0.2 0.8 0 0.6 0 0.6 0.2 0.7 0.2 0.1 0.4 0.2 0.6 0.2q0.5 0 1.1 0.5c0.2 0.2 0.7 0.5 1 0.6 0.5 0.3 0.8 0.5 1.1 0.8 0.2 0.2 0.6 0.5 0.9 0.6 0.2 0.2 0.6 0.5 0.9 0.7q0.8 0.8 1.2 0.6c0.1-0.1 0.3-0.1 0.4-0.1 0.2 0 0.6 0.3 0.7 0.6 0.1 0.2 0.1 0.3 0 0.4-0.1 0.1-0.2 0.2-0.4 0.3-0.2 0-0.2 0.1-0.4 0.3-0.1 0.4-0.2 0.4-0.8 0.4-0.3 0.1-0.9 0.3-0.9 0.5 0 0 0 0 0.1 0l-0.4 0.2c-1.2-0.2-2.3-0.7-3.4-1.3l-0.1-0.5q0.1 0 0.1-0.2c0-0.4-0.2-0.7-0.5-0.9q-0.3-0.1-0.5-0.4-0.1-0.1-0.2-0.2c0-0.1-0.1-0.2-0.1-0.3-0.1-0.2-0.3-0.5-0.4-0.7-0.3-0.3-0.3-0.4 0.1-0.8 0.2-0.1 0.3-0.3 0.3-0.3q0-0.3-0.6-0.6l-0.5-0.2-0.2-0.6c-0.2-0.3-0.3-0.7-0.3-1-0.1-0.2-0.2-0.5-0.4-0.7-0.4-0.6-0.7-1.8-0.6-2.2 0.1-1 0.1-1.4 0.2-1.5 0-0.2 0.1-0.4 0-0.6 0-0.2 0.1-0.4 0.2-0.8 0.1-0.4 0.2-0.7 0.2-0.8 0-0.1 0.1-0.3 0.2-0.4 0.2-0.2 1.1-0.9 1.8-1.3 0.4-0.2 0.6-0.6 0.9-1.3 0.1-0.3 0.2-0.5 0.6-0.8 0.5-0.4 0.6-0.6 0.6-1.1q0-0.3 0.1-0.5c0.1-0.1 0.1-0.1 0.2-0.1 0.1 0 0.3 0 0.6 0zm4.6 2.9q0.1 0 0.1 0.1c0 0.1 0.1 0.3 0.2 0.5 0.1 0.1 0.2 0.3 0.2 0.4 0 0.1 0 0.3 0.1 0.5 0 0.1 0 0.3 0 0.3 0 0.1-0.2 0.3-0.5 0.5-0.2 0.2-0.4 0.4-0.4 0.4 0 0-0.1 0.1-0.2 0.3-0.2 0.1-0.3 0.3-0.4 0.4-0.1 0.2-0.2 0.3-0.4 0.3-0.2 0-0.2-0.1-0.4-0.4-0.2-0.4-0.2-0.9 0.1-1.3 0.1-0.2 0.1-0.3 0-0.5-0.1-0.2-0.1-0.4-0.1-0.5 0-0.2-0.1-0.3-0.1-0.3-0.1 0-0.1-0.2 0-0.3v-0.1l0.3-0.2q0 0 0.1 0 0 0 0.1 0c0.1 0 0.3 0 0.4 0q0.2-0.1 0.2-0.1zm4.5 2.7c0 0 0 0 0.1-0.1 0.1-0.1 0.1-0.1 0.1-0.2 0-0.1-0.3-0.3-0.4-0.3-0.1 0 0 0 0.2 0.6zm2.3 0.6c0.1 0.2 0.2 0.3 0.2 0.3 0 0 0.2-0.2 0.3-0.4 0.2-0.3 0.3-0.5 0.3-0.5 0-0.2-0.4-0.4-0.6-0.4-0.4 0-0.5 0.4-0.2 1zm1 0.9c-0.1 0.2-0.1 0.3-0.4 0.2-0.1 0-0.3-0.1-0.3-0.2-0.2-0.1-0.3 0-0.2 0.2 0.1 0.3 0.1 0.4-0.1 0.4q-0.2 0.1-0.4-0.1c-0.2-0.2-0.7-0.3-0.7-0.1 0 0 0.1 0.1 0.2 0.1 0.3 0.1 0.5 0.3 0.5 0.4 0 0.3-0.3 0.3-0.7 0.1-0.7-0.3-0.9-0.2-0.9 0.4 0 0.2 0 0.4 0 0.4-0.1 0-0.1 0.2-0.1 0.4 0 0.6 0.1 0.6 0.6 0 0.4-0.4 0.5-0.5 0.9-0.2 0.2 0.2 0.6 0.1 0.9-0.1 0.1-0.1 0.1-0.2 0.1-0.3 0 0 0.2-0.3 0.4-0.5 0.5-0.4 0.7-0.8 0.6-1.2q-0.1-0.2-0.2-0.2 0 0.1-0.2 0.3zm2.3 0.1c0 0.2 0.1 0.6 0.1 1 0 0.4 0 0.7 0 0.7q0 0 0.1 0c0 0 0-0.2 0-0.4 0-0.3-0.1-1.4-0.2-1.5 0 0 0 0.1 0 0.2zm-1.2 0.8c0 0.1 0.2 0.4 0.4 0.5 0.3 0.1 0.3-0.1 0-0.3-0.2-0.2-0.3-0.3-0.4-0.2q0 0 0 0z"/><path class="d" d="m12.6 28.7l1-2 2.4-2.2c0.1 0.3 0.9 0 0.9-0.1-0.1-0.1-0.5 0-0.5-0.2-0.2-0.2 2.3-0.1 1.3-0.9-1-0.7-1.9 0.1-1.9 0.1 0 0-3.8 1.7-4.4 3.6-0.3 0.9-0.8 1.7-0.8 1.7z"/><path class="e" d="m14.8 35.1l2.1 0.8 3.3-0.1c-0.1-0.2 0.5-0.9 0.5-0.9 0.2 0.4-0.1 0.6-0.2 0.9 0 0 1.8-1.6 1.7-0.4-0.2 1.3-1.5 1.1-1.5 1.1 0 0-3.6 1.7-5.4 0.8-0.8-0.4-1.9-1.2-1.9-1.2 0 0 1.4-1 1.4-1z"/><path class="f" d="m12.2 26.7c-0.3 0-0.6 0.1-1 0.4-0.6 1.3-2.1 2.3-1.4 4.4l1.6 3.2c0.8 1 1.5 1.6 3.4 2.5 1.3-0.4 1.2-1 1.9-1.5-0.5-0.4-0.6-0.7-1.3-0.9 0.6-0.2 1.2-0.4 1.8-0.7-0.4-0.4-0.7-0.8-0.9-1.1-0.8-1.1-1.4-2.5-1.8-3.7 0-0.2-0.1-0.5-0.1-0.8-0.6 0.2-1.1 0.4-1.7 0.6 0.8-0.7 0.6-1.1 0.8-1.7-0.5-0.3-0.9-0.7-1.3-0.7z"/><path fill-rule="evenodd" class="g" d="m6.4 31.3c2-0.9 4.1-0.7 5.4 1.9 0.8 1.6-0.7 3-2.6 3.9-2.6 1.3-4.2 0.4-4.9-1.3-0.8-1.6 0.2-3.6 2.1-4.5z"/><path class="h" d="m6.2 37.3c1.8 0.3 4.5-1.3 5.1-2 0.1 0.4-2.9 2.9-5.1 2z"/><path  d="m3.5 35c-0.4 0.1-0.2 1.6 0.5 1.7-0.2 0.4 0.4 1.3 1.1 1-0.2 0.8 0.8 0.9 0.9 0.5 0.2 0.3 1.3 0.1 1.2-0.4-0.2-0.3-0.7-1.2-1.2-0.9 0.2-0.3-0.1-1.2-0.6-1.2 0.3-0.3 0-1.4-0.4-1.4 0.4-0.2 0.5-1.3 0.1-1.7 0.1-0.5-1-0.7-1 0.1-0.8 0.2-1.2 0.9-0.7 1.2-0.5 0.1-0.4 1.1 0.1 1.1z"/><path fill-rule="evenodd" d="m7.8 35.9c0.3-0.1 0.6 0 0.8 0.3 0.1 0.2 0 0.6-0.4 0.7-0.3 0.2-0.6 0.1-0.8-0.2-0.1-0.3 0-0.6 0.4-0.8z"/><path fill-rule="evenodd" d="m6.9 33.6c0.4-0.2 0.7-0.1 0.9 0.2 0.1 0.3-0.1 0.6-0.4 0.8-0.3 0.1-0.7 0-0.8-0.3-0.1-0.2 0-0.6 0.3-0.7z"/><path  d="m10.3 36c0.2-0.5 0.4-1.2 0.3-1.6-0.1-1-0.9-1.2-1.6-1.7 1 0.8 1.6 1.7 1.3 3.3z"/><path class="i" d="m7 37.9c-0.2 0.1-0.5 0.4-0.9 0.1-0.6 0.6-0.9 0.1-0.9-0.4-1 0.2-1.2-0.7-1-1-1-0.1-0.9-1.1-0.6-1.3 0.6 1 0.5 2.1 3.4 2.6z"/><path class="j" d="m15.1 37c0.2 0.4-2.5-0.9-3.2-1.9l0.2-0.8c0.7 1.7 2 1.9 3 2.7z"/><path class="k" d="m34 36.6l-2.2 0.5-3.2-0.7c0.2-0.2-0.5-0.7-0.6-0.6 0 0.1 0.3 0.4 0.2 0.5-0.1 0.2-1.5-1.8-1.5-0.5 0 1.3 1.2 1.5 1.2 1.5 0 0 3.6 2 5.5 1.3 0.9-0.2 1.9-0.4 1.9-0.4z"/><path class="l" d="m37.9 31.1l-0.6-2.2-2.1-2.5c0 0.1-1 0.1-1 0 0.2-0.3 0.6-0.2 0.9-0.3 0 0-2.5-0.5-1.3-1.1 1.1-0.6 1.7 0.5 1.7 0.5 0 0 3.5 1.9 3.9 3.9 0.1 0.9-0.1 2.1-0.1 2.1 0 0-1.4-0.4-1.4-0.4z"/><path class="m" d="m37.3 29.2c-0.1 0.7-0.2 0.9 0 1.6q-0.6-0.4-1.3-0.8c-0.3 1-0.9 2.1-1.5 3-0.4 0.6-1.3 1.5-2 2.1 0.6 0.4 1.2 0.8 1.8 1.2-1-0.2-1.2 0.2-1.8 0.4 0 1-0.1 1.6 1.1 2.1 1.4-0.3 3.1 0.2 4.3-1.5l1.8-3.2c0.2-1.3 0.3-2.3-0.2-4.3-1-0.8-1.4-0.3-2.2-0.6z"/><path class="n" d="m36.1 29.9c-0.4 1-1 2.2-1.6 3.1-0.4 0.6-1.3 1.5-2 2.1 0.3 0.2 0.6 0.4 0.8 0.7 0.2-0.4 0.2-0.8 0.6-0.9 1.3 0.9 2.2 1.9 3.8 2.8q0.4-0.2 0.5-0.7c-0.2 0.2-2.1-1.5-2.4-2.1-0.3-0.6 1-3 1.3-2.8 1.1 0.2 2 0.6 2.7 1.3 0.2-0.2 0.3-0.5 0.1-0.9 0 0-3.2-1.6-3.5-1.7-0.3-0.1-0.1-0.8-0.1-0.8 0 0-0.2-0.1-0.2-0.1z"/><path fill-rule="evenodd" class="o" d="m40.1 39.4c-1.8-0.9-2.7-2.6-1.5-5 0.7-1.5 2.6-1.1 4.3-0.2 2.4 1.2 2.5 2.9 1.7 4.3-0.7 1.5-2.8 1.9-4.5 0.9z"/><path class="h" d="m45.3 36.7c-0.9-1.7-3.8-2.8-4.7-2.9 0.2-0.4 4 0.6 4.7 2.9z"/><path class="p" d="m44.3 39.4c1.9-0.4 1.7-2.9 0.4-4.1-1.5 1.6-0.7 2.5-1.1 3.8-0.8 0.5-1.8 0.2-2.4 0.8 1.3 0.8 3.3 1.2 3.1-0.5z"/><path fill-rule="evenodd" d="m42.8 35.9c-0.3-0.2-0.4-0.5-0.3-0.7 0.2-0.3 0.5-0.4 0.8-0.2 0.3 0.1 0.4 0.5 0.3 0.7-0.2 0.3-0.5 0.3-0.8 0.2z"/><path fill-rule="evenodd" d="m41.5 37.8c-0.3-0.2-0.4-0.5-0.3-0.7 0.2-0.3 0.5-0.4 0.8-0.2 0.3 0.1 0.4 0.5 0.3 0.7-0.2 0.3-0.5 0.3-0.8 0.2z"/><path  d="m41.5 34c-0.5 0.1-1.1 0.4-1.4 0.6-0.7 0.7-0.4 1.3-0.4 2.1 0.1-1.1 0.4-2.1 1.8-2.7z"/><path class="q" d="m44.8 38.8c0.3-0.9 0.4-2-0.1-3.3 0 0 1.8 2.2 0.1 3.3z"/><path class="j" d="m39.1 29.7c0.2-0.4 0.8 2.6 0.4 3.7l-0.8 0.3c0.9-1.5 0.4-2.7 0.4-4z"/><path class="r" d="m28.4 16.2l1.7 1.5c0.6 1.1 0.6 2.2 0.6 3.3-0.3 0-0.3 0.9-0.2 0.9 0.1-0.1 0.2-0.4 0.4-0.4 0.2-0.1-0.9 2.1 0.2 1.5 1.1-0.6 0.7-1.7 0.7-1.7 0 0 0.1-4.2-1.4-5.6-0.7-0.6-1.2-1.3-1.2-1.3z"/><path class="s" d="m21.6 15.4l-1.7 1.2c-0.5 1-0.8 2.3-1.1 3.4 0.1 0 0.6 0.9 0.5 0.9-0.4 0-0.5-0.4-0.7-0.6 0 0 0.7 2.4-0.4 1.7-1-0.7-0.3-1.8-0.3-1.8 0 0 0-4 1.5-5.3 0.8-0.5 2.4-1.1 2.4-1.1z"/><path class="t" d="m23.4 12.5c-1.2 0.4-2.1 0.8-3.6 2.1-0.3 1.3 0.4 1.1 0.5 1.9 0.6-0.2 0.9-0.6 1.2-0.5 0.6-0.2 1.2-0.4 1.8-0.5 2-0.3 4.2-0.2 6 0.5q0.5 0.2 1.1 0.5c0.1-0.2 0.1-0.5 0.1-1-1-1.1-1.3-2.8-3.4-3z"/><path class="u" d="m23.6 12.6c0 0-0.3 2.2 0.8 3.6 1-0.8 1.5-3.7 1.5-3.7 0 0-2.3 0.1-2.3 0.1z"/><path class="v" d="m28 8c0.6 0.8 2 0 1.8 2.6 0 0 0.8 0.4 1.1 0.7 0.6 0.6-0.5 1.5-1.1 1-0.1 0 0.1-1.3-0.4-1.3-2.1-0.2-2.1-2.4-2.1-2.4z"/><path class="w" d="m22.6 7.6c-0.8 0.6-1.9-0.5-2.4 2 0 0-0.9 0.2-1.3 0.4-0.8 0.4 0.1 1.6 0.8 1.3 0.1-0.1 0.2-1.3 0.7-1.2 2.1 0.4 2.7-1.8 2.7-1.8z"/><path fill-rule="evenodd" class="x" d="m28.1 9.6c0 1.9-1 3.5-3.7 3.6-1.6 0-2.1-1.7-2.2-3.6 0-2.7 1.3-3.5 3-3.5 1.6 0 2.9 1.5 2.9 3.5z"/><path class="y" d="m23.3 6.7c-1 1.6-0.6 4.7-0.3 5.5-0.4 0-1.4-3.9 0.3-5.5z"/><path class="z" d="m25 5.5c-1-0.6-3.1 0.7-2.6 2.4 2.1 0.5 1.8-0.5 2.6-0.9 0.3 0.8 2.1 1.2 2.9 1.5 0.9-1.7-0.8-4-2.9-3z"/><path fill-rule="evenodd" d="m23.8 8.9c0 0.3-0.3 0.5-0.5 0.5-0.3 0-0.5-0.2-0.5-0.5 0-0.3 0.2-0.6 0.5-0.6 0.2 0 0.5 0.3 0.5 0.6z"/><path fill-rule="evenodd" d="m26 9.1c0 0.3-0.2 0.6-0.5 0.6-0.3 0-0.5-0.3-0.5-0.6 0-0.3 0.2-0.6 0.5-0.6 0.3 0 0.5 0.3 0.5 0.6z"/><path  d="m22.7 10.9c0.4 0.4 0.9 0.8 1.3 0.9 0.8 0.3 1.2-0.3 1.9-0.7-1 0.5-2 0.7-3.2-0.2z"/><path class="j" d="m22.7 7.7c0.1-1.3 1.4-1.9 2.2-2.2 0.1-0.1-2.8 0.1-2.2 2.2z"/><path class="h" d="m20 15c-0.5 0.1 1.8-1.9 3-2.1l0.7 0.5c-1.8 0-2.6 1-3.7 1.6z"/></svg>